<?xml version="1.0" standalone="no"?>
<!DOCTYPE svg PUBLIC "-//W3C//DTD SVG 20010904//EN"
 "http://www.w3.org/TR/2001/REC-SVG-20010904/DTD/svg10.dtd">
<svg version="1.0" xmlns="http://www.w3.org/2000/svg"
 width="3360.000000pt" height="1500.000000pt" viewBox="0 0 3360.000000 1500.000000"
 preserveAspectRatio="xMidYMid meet">

<g transform="translate(0.000000,1500.000000) scale(0.100000,-0.100000)"
fill="#000000" stroke="none">
<path d="M22391 4994 c0 -11 3 -14 6 -6 3 7 2 16 -1 19 -3 4 -6 -2 -5 -13z"/>
<path d="M23413 4573 c9 -2 25 -2 35 0 9 3 1 5 -18 5 -19 0 -27 -2 -17 -5z"/>
<path d="M23382 4425 c0 -16 2 -22 5 -12 2 9 2 23 0 30 -3 6 -5 -1 -5 -18z"/>
<path d="M23353 4353 c-3 -10 -8 -22 -10 -28 -3 -5 3 -1 11 9 16 20 21 36 11
36 -3 0 -8 -8 -12 -17z"/>
<path d="M29618 4314 c-5 -4 -8 -23 -8 -43 1 -30 2 -33 11 -18 11 19 8 73 -3
61z"/>
<path d="M29842 4295 c0 -16 2 -22 5 -12 2 9 2 23 0 30 -3 6 -5 -1 -5 -18z"/>
<path d="M22401 4294 c0 -11 3 -14 6 -6 3 7 2 16 -1 19 -3 4 -6 -2 -5 -13z"/>
<path d="M23440 4250 l-35 -7 38 -2 c20 0 37 4 37 9 0 6 -1 9 -2 9 -2 -1 -19
-5 -38 -9z"/>
<path d="M29833 4215 c0 -27 2 -38 4 -22 2 15 2 37 0 50 -2 12 -4 0 -4 -28z"/>
<path d="M29443 4175 c-3 -9 -3 -18 -1 -21 3 -3 8 4 11 16 6 23 -1 27 -10 5z"/>
<path d="M29676 4096 c-4 -48 -5 -90 -3 -93 7 -6 20 140 15 163 -2 10 -7 -21
-12 -70z"/>
<path d="M29573 4100 c0 -25 2 -35 4 -22 2 12 2 32 0 45 -2 12 -4 2 -4 -23z"/>
<path d="M29562 4010 c0 -19 2 -27 5 -17 2 9 2 25 0 35 -3 9 -5 1 -5 -18z"/>
<path d="M25920 3999 c-1 -28 27 -73 52 -83 31 -13 78 -10 78 5 0 5 5 9 11 9
5 0 7 -6 3 -12 -6 -10 -3 -9 8 0 9 7 16 22 15 32 -1 17 -2 17 -24 1 -12 -9
-23 -20 -23 -25 0 -5 -7 -3 -15 4 -11 9 -15 10 -15 1 0 -28 -45 -4 -67 34 -12
22 -23 37 -23 34z"/>
<path d="M27134 3992 c4 -7 2 -12 -4 -12 -6 0 -10 -10 -8 -22 2 -16 -5 -26
-26 -36 -24 -12 -27 -19 -23 -42 5 -22 2 -29 -12 -33 -22 -5 -18 -49 5 -68 32
-26 15 -57 -80 -149 -51 -50 -107 -100 -125 -111 -17 -10 -31 -23 -31 -29 0
-13 13 -13 27 1 14 14 33 3 33 -18 0 -13 3 -13 15 -3 8 7 15 18 15 25 0 8 30
35 68 62 l67 50 0 -283 0 -282 -27 -26 c-37 -33 -35 -42 10 -50 70 -11 67 -16
67 93 0 99 10 131 41 131 7 0 34 -32 59 -71 l45 -70 -20 -30 c-38 -52 5 -69
59 -23 37 31 39 44 6 72 -29 25 -89 139 -75 144 5 2 3 31 -5 68 -15 69 -18
239 -6 330 7 54 10 58 117 164 61 59 118 112 127 118 9 5 17 14 17 21 0 7 9
18 20 25 28 17 25 35 -5 30 -20 -4 -25 -1 -25 16 0 15 -7 8 -23 -24 -17 -32
-52 -68 -127 -128 -56 -45 -105 -80 -109 -77 -3 3 9 17 27 31 26 21 32 32 32
64 0 48 -17 88 -42 95 -10 4 -18 12 -18 20 0 7 -8 15 -17 18 -10 2 -27 8 -37
13 -14 5 -17 4 -12 -4z"/>
<path d="M29748 3843 c5 -21 7 -23 10 -9 2 10 0 22 -6 28 -6 6 -7 0 -4 -19z"/>
<path d="M29513 3804 c-8 -7 -12 -36 -12 -66 1 -29 4 -42 6 -28 2 14 9 34 14
46 6 12 9 30 7 42 -2 17 -5 18 -15 6z"/>
<path d="M29663 3605 c0 -22 2 -30 4 -17 2 12 2 30 0 40 -3 9 -5 -1 -4 -23z"/>
<path d="M29361 3435 c0 -11 -4 -31 -7 -45 -5 -19 -4 -22 5 -14 7 6 11 26 8
45 -2 19 -5 25 -6 14z"/>
<path d="M29625 3364 c-5 -11 -9 -102 -11 -204 -3 -206 9 -175 25 65 8 128 3
178 -14 139z"/>
<path d="M29495 3068 c-3 -18 -2 -87 3 -153 l9 -120 2 85 c0 47 4 115 8 153 4
46 2 67 -5 67 -6 0 -14 -15 -17 -32z"/>
<path d="M29462 2703 c-1 -111 2 -184 8 -188 5 -3 7 0 4 8 -3 8 2 54 10 103
15 86 20 142 9 117 -12 -32 -22 -7 -26 65 -1 42 -4 -5 -5 -105z"/>
<path d="M29595 2810 c-3 -5 -1 -10 4 -10 6 0 11 5 11 10 0 6 -2 10 -4 10 -3
0 -8 -4 -11 -10z"/>
<path d="M29594 2555 c3 -88 9 -173 13 -189 4 -22 3 -28 -8 -24 -9 3 -17 31
-22 86 -7 60 -12 79 -22 76 -7 -3 -15 3 -17 13 -3 10 -8 -9 -13 -42 -23 -179
-30 -210 -46 -213 -15 -3 -15 4 -3 80 17 102 17 105 2 90 -18 -18 -30 -14 -23
7 3 11 2 22 -3 25 -5 3 -12 -16 -15 -42 -8 -66 -25 -108 -39 -94 -7 7 -6 35 6
99 9 48 15 106 15 128 l-2 40 -6 -46 c-4 -26 -12 -53 -18 -60 -6 -8 -14 -53
-18 -101 -5 -60 -11 -88 -20 -88 -7 0 -18 -13 -25 -29 -7 -17 -17 -28 -25 -25
-14 6 -25 -37 -25 -100 0 -30 3 -37 10 -26 5 8 10 11 10 5 1 -5 6 1 11 15 10
24 11 22 29 -30 10 -29 27 -60 37 -68 17 -12 18 -10 23 30 l5 43 18 -57 c10
-32 23 -58 29 -58 5 0 7 7 4 16 -3 8 -2 12 4 9 6 -4 10 8 10 27 0 45 14 66 32
50 12 -10 14 -6 10 21 -5 38 5 31 28 -21 l18 -37 11 28 c16 41 57 82 66 67 6
-9 9 -9 16 1 7 11 11 10 21 -4 13 -17 15 -16 37 9 21 24 23 33 17 83 -4 30
-11 58 -17 62 -6 3 -19 37 -29 75 -18 67 -18 68 -19 27 -1 -43 -14 -57 -25
-27 -3 9 -6 52 -6 96 0 91 -17 208 -32 223 -7 7 -8 -42 -4 -150z m-107 -372
c-3 -10 -5 -4 -5 12 0 17 2 24 5 18 2 -7 2 -21 0 -30z"/>
<path d="M29195 2437 c-29 -186 -36 -350 -16 -384 9 -16 10 -16 11 3 0 32 28
39 36 9 3 -13 3 -29 -2 -36 -4 -7 -3 -9 4 -5 20 12 29 77 16 116 -4 13 -6 13
-14 0 -7 -12 -9 -11 -10 5 0 11 -3 54 -6 95 -4 41 -1 142 6 223 7 81 10 150 8
152 -2 3 -17 -77 -33 -178z"/>
<path d="M29741 2524 c-1 -30 18 -122 48 -233 48 -180 66 -216 98 -204 7 3 13
0 13 -6 0 -6 4 -11 9 -11 17 0 23 40 12 69 -12 28 -48 39 -53 16 -2 -10 -8
-12 -18 -5 -10 6 -15 35 -18 107 -3 59 -9 104 -17 113 -22 27 -36 59 -55 133
l-19 72 0 -51z"/>
<path d="M29352 2525 c0 -16 2 -22 5 -12 2 9 2 23 0 30 -3 6 -5 -1 -5 -18z"/>
<path d="M24445 2519 c-16 -3 -44 -7 -62 -8 -38 -1 -100 -41 -125 -79 -25 -38
-22 -50 5 -24 13 12 26 20 29 17 2 -3 13 4 23 15 27 30 32 25 37 -33 3 -33 13
-66 26 -84 23 -32 29 -63 12 -63 -15 0 -80 -61 -94 -89 -8 -14 -19 -51 -25
-83 -10 -47 -10 -62 4 -94 9 -21 25 -49 37 -61 11 -12 17 -26 14 -32 -4 -6 -9
-48 -11 -93 -2 -49 -12 -107 -24 -142 -12 -33 -21 -64 -21 -69 0 -5 17 -7 39
-4 46 6 57 0 66 -33 8 -34 -7 -71 -48 -117 -60 -67 -56 -102 15 -139 27 -14
28 -13 28 9 0 13 -5 28 -11 34 -9 9 -1 30 29 81 42 74 67 136 58 150 -2 4 -1
14 3 21 30 48 99 -74 87 -152 -25 -150 -21 -158 59 -148 56 7 62 19 19 41 -16
8 -31 16 -33 17 -2 2 1 34 8 73 12 65 11 73 -8 114 -28 57 -20 76 30 76 22 0
39 5 39 11 0 6 -19 63 -42 127 -36 103 -41 126 -39 192 2 44 7 78 14 82 8 5
28 -26 62 -95 28 -57 63 -121 79 -142 27 -35 30 -36 42 -20 15 21 -2 70 -71
205 -24 47 -55 110 -69 140 -14 30 -41 72 -61 94 -40 44 -41 49 -19 101 10 25
14 60 12 102 -4 75 7 80 58 29 28 -28 34 -31 34 -15 0 10 -14 34 -31 53 -28
32 -36 35 -79 35 -26 -1 -52 0 -56 3 -5 2 -22 1 -39 -3z"/>
<path d="M29772 2218 c1 -37 4 -66 6 -63 3 3 11 -3 18 -13 19 -25 17 -1 -6 78
l-19 65 1 -67z"/>
</g>
</svg>
